<svg width="123" height="127" viewBox="0 0 123 127" fill="none" xmlns="http://www.w3.org/2000/svg">
<path fill-rule="evenodd" clip-rule="evenodd" d="M61.4123 3.12282C60.6322 4.9297 49.5376 31.2505 36.7573 61.6144L13.5213 116.82L7.13368 116.832L0.746094 116.844V121.621V126.398H19.7669H38.7877V121.621V116.844H32.826C29.2807 116.844 26.8642 116.619 26.8642 116.289C26.8642 115.983 34.4482 96.9645 43.7178 74.0248C57.6558 39.5312 60.6532 32.5538 61.0449 33.693C61.3056 34.4506 67.9827 53.4062 75.8829 75.8165L90.2462 116.563L82.6861 116.719L75.126 116.875V121.636V126.398H98.6891H122.252V121.621V116.844H116.964H111.677L87.929 59.6586C74.8677 28.2066 63.8771 1.88077 63.5057 1.15577C62.8579 -0.108757 62.7727 -0.0289511 61.4123 3.12282Z" fill="white"/>
</svg>
